<svg width="35" height="31" viewBox="0 0 35 31" fill="none" xmlns="http://www.w3.org/2000/svg">
<path d="M25.4131 11.3919C25.4131 17.6835 19.7242 22.7838 12.7066 22.7838C5.68893 22.7838 0 17.6835 0 11.3919C0 5.10032 5.68893 0 12.7066 0C19.7242 0 25.4131 5.10032 25.4131 11.3919ZM3.45328 11.3919C3.45328 15.9736 7.59612 19.6878 12.7066 19.6878C17.817 19.6878 21.9599 15.9736 21.9599 11.3919C21.9599 6.81018 17.817 3.09598 12.7066 3.09598C7.59612 3.09598 3.45328 6.81018 3.45328 11.3919Z" fill="white"/>
<rect width="17.1877" height="2.28561" rx="1.14281" transform="matrix(-0.771922 -0.635717 0.701537 -0.712633 32.1996 29.9976)" fill="white"/>
<path d="M20.4649 18.8662C26.4951 20.1226 35.0951 27.6584 33.8662 29.3086C32.33 31.3713 23.9346 26.6117 20.4649 18.8662Z" fill="white" stroke="white"/>
</svg>
