<svg width="36" height="27" viewBox="0 0 36 27" fill="none" xmlns="http://www.w3.org/2000/svg">
<mask id="mask0_632_316" style="mask-type:alpha" maskUnits="userSpaceOnUse" x="0" y="0" width="36" height="27">
<path d="M21.8961 10.6317L21.8722 10.625C20.4628 10.625 19.4707 10.8121 18.8881 11.026C18.8723 11.8079 18.8644 14.4612 19.6282 16.4194L19.14 16.5798C19.1007 16.4996 18.1637 14.6417 17.7306 11.9349C17.6204 12.1221 17.5732 12.2624 17.5732 12.2624C13.8332 14.1872 13.5576 17.8229 13.5576 17.8229C13.5576 17.8229 12.9907 18.3576 12.9041 18.5581C12.8175 18.7586 12.7545 20.3893 12.7545 20.3893C12.6915 21.198 13.3135 21.3183 13.3135 21.3183H15.3055C15.526 21.7527 16.0299 21.9866 16.2583 21.9866H21.8801V22H27.4861V21.9933C27.7144 21.9933 28.2262 21.7594 28.4467 21.325H30.4309C30.4309 21.325 31.0529 21.198 30.9978 20.396C30.9978 20.396 30.9348 18.772 30.8482 18.5648C30.7615 18.3643 30.1946 17.8296 30.1946 17.8296C30.1946 17.8296 29.9191 14.2006 26.1791 12.2691C26.1791 12.2691 26.1318 12.1287 26.0216 11.9416C25.5885 14.6484 24.6516 16.5063 24.6122 16.5865L24.124 16.4261C24.8878 14.4679 24.8799 11.8079 24.8642 11.0327C24.2837 10.8196 23.297 10.6331 21.8961 10.6317ZM32 4.125C33.925 4.125 35.5 5.5875 35.5 7.375V23.625C35.5 25.4125 33.925 26.875 32 26.875H4C2.075 26.875 0.5 25.4125 0.5 23.625L0.5175 4.125C0.5175 2.3375 2.075 0.875 4 0.875H14.5L18 4.125H32Z" fill="white"/>
</mask>
<g mask="url(#mask0_632_316)">
<path d="M21.8961 10.6317L21.8722 10.625C20.4628 10.625 19.4707 10.8121 18.8881 11.026C18.8723 11.8079 18.8644 14.4612 19.6282 16.4194L19.14 16.5798C19.1007 16.4996 18.1637 14.6417 17.7306 11.9349C17.6204 12.1221 17.5732 12.2624 17.5732 12.2624C13.8332 14.1872 13.5576 17.8229 13.5576 17.8229C13.5576 17.8229 12.9907 18.3576 12.9041 18.5581C12.8175 18.7586 12.7545 20.3893 12.7545 20.3893C12.6915 21.198 13.3135 21.3183 13.3135 21.3183H15.3055C15.526 21.7527 16.0299 21.9866 16.2583 21.9866H21.8801V22H27.4861V21.9933C27.7144 21.9933 28.2262 21.7594 28.4467 21.325H30.4309C30.4309 21.325 31.0529 21.198 30.9978 20.396C30.9978 20.396 30.9348 18.772 30.8482 18.5648C30.7615 18.3643 30.1946 17.8296 30.1946 17.8296C30.1946 17.8296 29.9191 14.2006 26.1791 12.2691C26.1791 12.2691 26.1318 12.1287 26.0216 11.9416C25.5885 14.6484 24.6516 16.5063 24.6122 16.5865L24.124 16.4261C24.8878 14.4679 24.8799 11.8079 24.8642 11.0327C24.2837 10.8196 23.297 10.6331 21.8961 10.6317ZM32 4.125C33.925 4.125 35.5 5.5875 35.5 7.375V23.625C35.5 25.4125 33.925 26.875 32 26.875H4C2.075 26.875 0.5 25.4125 0.5 23.625L0.5175 4.125C0.5175 2.3375 2.075 0.875 4 0.875H14.5L18 4.125H32Z" fill="#217CBB"/>
</g>
</svg>
