<svg width="43" height="44" viewBox="0 0 43 44" fill="none" xmlns="http://www.w3.org/2000/svg">
<mask id="mask0_83_7487" style="mask-type:alpha" maskUnits="userSpaceOnUse" x="5" y="5" width="33" height="34">
<path d="M15.05 31.9C13.2762 31.9 11.8411 33.385 11.8411 35.2C11.8411 37.015 13.2762 38.5 15.05 38.5C16.8237 38.5 18.275 37.015 18.275 35.2C18.275 33.385 16.8237 31.9 15.05 31.9ZM5.375 5.5V8.8H8.6L14.405 21.3235L12.2281 25.366C11.9701 25.828 11.825 26.3725 11.825 26.95C11.825 28.765 13.2762 30.25 15.05 30.25H34.4V26.95H15.7272C15.5015 26.95 15.3241 26.7685 15.3241 26.5375L15.3725 26.3395L16.8238 23.65H28.8369C30.0462 23.65 31.1105 22.9735 31.6587 21.9505L37.4315 11.242C37.5605 11.011 37.625 10.7305 37.625 10.45C37.625 9.5425 36.8994 8.8 36.0125 8.8H12.1636L10.6479 5.5H5.375ZM31.175 31.9C29.4012 31.9 27.9661 33.385 27.9661 35.2C27.9661 37.015 29.4012 38.5 31.175 38.5C32.9487 38.5 34.4 37.015 34.4 35.2C34.4 33.385 32.9487 31.9 31.175 31.9Z" fill="white"/>
</mask>
<g mask="url(#mask0_83_7487)">
<path d="M15.05 31.9C13.2762 31.9 11.8411 33.385 11.8411 35.2C11.8411 37.015 13.2762 38.5 15.05 38.5C16.8237 38.5 18.275 37.015 18.275 35.2C18.275 33.385 16.8237 31.9 15.05 31.9ZM5.375 5.5V8.8H8.6L14.405 21.3235L12.2281 25.366C11.9701 25.828 11.825 26.3725 11.825 26.95C11.825 28.765 13.2762 30.25 15.05 30.25H34.4V26.95H15.7272C15.5015 26.95 15.3241 26.7685 15.3241 26.5375L15.3725 26.3395L16.8238 23.65H28.8369C30.0462 23.65 31.1105 22.9735 31.6587 21.9505L37.4315 11.242C37.5605 11.011 37.625 10.7305 37.625 10.45C37.625 9.5425 36.8994 8.8 36.0125 8.8H12.1636L10.6479 5.5H5.375ZM31.175 31.9C29.4012 31.9 27.9661 33.385 27.9661 35.2C27.9661 37.015 29.4012 38.5 31.175 38.5C32.9487 38.5 34.4 37.015 34.4 35.2C34.4 33.385 32.9487 31.9 31.175 31.9Z" fill="white"/>
</g>
</svg>
