<svg width="34" height="36" viewBox="0 0 34 36" fill="none" xmlns="http://www.w3.org/2000/svg">
<path d="M18.8888 18.7365V24.6482L24.5554 21.6924L24.5441 15.7841L18.8888 18.7331V18.7365Z" fill="#F7F1F1"/>
<path d="M22.6667 2.97071L16.9962 0.0148544L11.3334 2.97071L17 5.92657L22.6667 2.97071Z" fill="#F7F1F1"/>
<path d="M15.1111 24.6481V18.7364L0 10.8519V10.8553V16.7636L15.1111 24.6481Z" fill="#F7F1F1"/>
<path d="M16.9962 15.7805H17L22.6666 12.8212L7.55557 4.94005L1.88892 7.89591L16.9962 15.7805Z" fill="#F7F1F1"/>
<path d="M34 8.88233L26.4445 4.94005V4.94346L20.8081 7.88225L20.7778 7.89591L28.3334 11.8382V29.5733L34 26.6175V8.88233Z" fill="#F7F1F1"/>
<path d="M16.9999 29.5735L0 20.7059V26.6176L16.9999 35.4852L24.5555 31.5463V25.6346L16.9999 29.5735Z" fill="#F7F1F1"/>
</svg>
